<svg width="868" height="366" viewBox="0 0 868 366" fill="none" xmlns="http://www.w3.org/2000/svg">
<path d="M305 152.5C305 228.643 220.53 307.943 192.165 332.435C189.523 334.422 186.306 335.496 183 335.496C179.694 335.496 176.477 334.422 173.835 332.435C145.47 307.943 61 228.643 61 152.5C61 120.144 73.8535 89.1124 96.733 66.233C119.612 43.3535 150.644 30.5 183 30.5C215.356 30.5 246.388 43.3535 269.267 66.233C292.146 89.1124 305 120.144 305 152.5Z" fill="#159A9C"/>
<g clip-path="url(#clip0_233_419)">
<path d="M150.137 123.724C155.279 118.583 155.279 110.246 150.137 105.104C144.995 99.962 136.658 99.962 131.517 105.104C126.375 110.246 126.375 118.583 131.517 123.724C136.658 128.866 144.995 128.866 150.137 123.724Z" fill="#E9E9E9" stroke="#E9E9E9" stroke-width="20" stroke-linecap="round" stroke-linejoin="round"/>
<path d="M201.343 109.759C206.485 104.617 206.485 96.2805 201.343 91.1386C196.201 85.9967 187.865 85.9967 182.723 91.1386C177.581 96.2805 177.581 104.617 182.723 109.759C187.865 114.901 196.201 114.901 201.343 109.759Z" fill="#E9E9E9" stroke="#E9E9E9" stroke-width="20" stroke-linecap="round" stroke-linejoin="round"/>
<path d="M247.895 137.69C253.036 132.548 253.036 124.211 247.895 119.069C242.753 113.927 234.416 113.927 229.274 119.069C224.132 124.211 224.132 132.548 229.274 137.69C234.416 142.832 242.753 142.832 247.895 137.69Z" fill="#E9E9E9" stroke="#E9E9E9" stroke-width="20" stroke-linecap="round" stroke-linejoin="round"/>
<path d="M159.447 151.655C162.504 148.599 166.133 146.174 170.126 144.52C174.12 142.865 178.4 142.014 182.723 142.014C187.046 142.014 191.326 142.865 195.32 144.52C199.313 146.174 202.942 148.599 205.998 151.655L222.291 167.948C226.184 171.843 228.553 177.004 228.969 182.494C229.385 187.985 227.821 193.444 224.56 197.881C221.299 202.318 216.556 205.441 211.192 206.683C205.827 207.926 200.195 207.206 195.315 204.654C186.92 200.231 178.533 200.224 170.154 204.63C165.277 207.181 159.648 207.902 154.285 206.662C148.923 205.422 144.181 202.304 140.919 197.871C137.656 193.438 136.088 187.984 136.498 182.496C136.908 177.007 139.269 171.847 143.154 167.948L159.447 151.655Z" fill="#E9E9E9" stroke="#E9E9E9" stroke-width="20" stroke-linecap="round" stroke-linejoin="round"/>
</g>
<path d="M442.416 160.072C442.416 165.277 441.221 170.056 438.832 174.408C436.443 178.675 432.773 182.131 427.824 184.776C422.875 187.421 416.731 188.744 409.392 188.744H395.824V221H373.936V131.144H409.392C416.56 131.144 422.619 132.381 427.568 134.856C432.517 137.331 436.229 140.744 438.704 145.096C441.179 149.448 442.416 154.44 442.416 160.072ZM407.728 171.336C411.909 171.336 415.024 170.355 417.072 168.392C419.12 166.429 420.144 163.656 420.144 160.072C420.144 156.488 419.12 153.715 417.072 151.752C415.024 149.789 411.909 148.808 407.728 148.808H395.824V171.336H407.728ZM521.139 184.136C521.139 186.184 521.011 188.317 520.755 190.536H471.219C471.56 194.973 472.968 198.387 475.443 200.776C478.003 203.08 481.118 204.232 484.787 204.232C490.248 204.232 494.046 201.928 496.179 197.32H519.475C518.28 202.013 516.104 206.237 512.947 209.992C509.875 213.747 505.992 216.691 501.299 218.824C496.606 220.957 491.358 222.024 485.555 222.024C478.558 222.024 472.328 220.531 466.867 217.544C461.406 214.557 457.139 210.291 454.067 204.744C450.995 199.197 449.459 192.712 449.459 185.288C449.459 177.864 450.952 171.379 453.939 165.832C457.011 160.285 461.278 156.019 466.739 153.032C472.2 150.045 478.472 148.552 485.555 148.552C492.467 148.552 498.611 150.003 503.987 152.904C509.363 155.805 513.544 159.944 516.531 165.32C519.603 170.696 521.139 176.968 521.139 184.136ZM498.739 178.376C498.739 174.621 497.459 171.635 494.899 169.416C492.339 167.197 489.139 166.088 485.299 166.088C481.63 166.088 478.515 167.155 475.955 169.288C473.48 171.421 471.944 174.451 471.347 178.376H498.739ZM572.494 202.44V221H561.358C553.422 221 547.235 219.08 542.798 215.24C538.361 211.315 536.142 204.957 536.142 196.168V167.752H527.438V149.576H536.142V132.168H558.03V149.576H572.366V167.752H558.03V196.424C558.03 198.557 558.542 200.093 559.566 201.032C560.59 201.971 562.297 202.44 564.686 202.44H572.494ZM686.446 131.144V221H664.558V167.112L644.462 221H626.798L606.574 166.984V221H584.686V131.144H610.542L635.758 193.352L660.718 131.144H686.446ZM697.834 185.16C697.834 177.821 699.199 171.379 701.93 165.832C704.746 160.285 708.543 156.019 713.322 153.032C718.101 150.045 723.434 148.552 729.322 148.552C734.357 148.552 738.751 149.576 742.506 151.624C746.346 153.672 749.29 156.36 751.338 159.688V149.576H773.226V221H751.338V210.888C749.205 214.216 746.218 216.904 742.378 218.952C738.623 221 734.229 222.024 729.194 222.024C723.391 222.024 718.101 220.531 713.322 217.544C708.543 214.472 704.746 210.163 701.93 204.616C699.199 198.984 697.834 192.499 697.834 185.16ZM751.338 185.288C751.338 179.827 749.802 175.517 746.73 172.36C743.743 169.203 740.074 167.624 735.722 167.624C731.37 167.624 727.658 169.203 724.586 172.36C721.599 175.432 720.106 179.699 720.106 185.16C720.106 190.621 721.599 194.973 724.586 198.216C727.658 201.373 731.37 202.952 735.722 202.952C740.074 202.952 743.743 201.373 746.73 198.216C749.802 195.059 751.338 190.749 751.338 185.288ZM810.949 159.688C813.082 156.36 816.026 153.672 819.781 151.624C823.536 149.576 827.93 148.552 832.965 148.552C838.853 148.552 844.186 150.045 848.965 153.032C853.744 156.019 857.498 160.285 860.229 165.832C863.045 171.379 864.453 177.821 864.453 185.16C864.453 192.499 863.045 198.984 860.229 204.616C857.498 210.163 853.744 214.472 848.965 217.544C844.186 220.531 838.853 222.024 832.965 222.024C828.016 222.024 823.621 221 819.781 218.952C816.026 216.904 813.082 214.259 810.949 211.016V255.048H789.061V149.576H810.949V159.688ZM842.181 185.16C842.181 179.699 840.645 175.432 837.573 172.36C834.586 169.203 830.874 167.624 826.437 167.624C822.085 167.624 818.373 169.203 815.301 172.36C812.314 175.517 810.821 179.827 810.821 185.288C810.821 190.749 812.314 195.059 815.301 198.216C818.373 201.373 822.085 202.952 826.437 202.952C830.789 202.952 834.501 201.373 837.573 198.216C840.645 194.973 842.181 190.621 842.181 185.16Z" fill="black"/>
<defs>
<clipPath id="clip0_233_419">
<rect width="158" height="158" fill="white" transform="translate(71 147) rotate(-45)"/>
</clipPath>
</defs>
</svg>
