<svg width="247" height="94" viewBox="0 0 247 94" fill="none" xmlns="http://www.w3.org/2000/svg">
<path d="M74.7742 37.6667C74.7742 60.9673 48.8882 85.234 40.1957 92.7288C39.3861 93.3368 38.4002 93.6655 37.3871 93.6655C36.374 93.6655 35.3881 93.3368 34.5785 92.7288C25.886 85.234 0 60.9673 0 37.6667C0 27.7654 3.93898 18.2694 10.9504 11.2681C17.9617 4.26669 27.4715 0.333374 37.3871 0.333374C47.3026 0.333374 56.8125 4.26669 63.8238 11.2681C70.8351 18.2694 74.7742 27.7654 74.7742 37.6667Z" fill="#159A9C"/>
<mask id="mask0_248_242" style="mask-type:luminance" maskUnits="userSpaceOnUse" x="3" y="1" width="69" height="70">
<path d="M37.3021 1.79522L3.06445 35.9836L37.3021 70.1721L71.5398 35.9836L37.3021 1.79522Z" fill="white"/>
</mask>
<g mask="url(#mask0_248_242)">
<path d="M27.3161 28.8608C28.8918 27.2876 28.8918 24.7364 27.3161 23.1629C25.7403 21.5894 23.1854 21.5894 21.6099 23.1629C20.0342 24.7364 20.0342 27.2876 21.6099 28.8608C23.1854 30.4344 25.7403 30.4344 27.3161 28.8608Z" fill="#111111" stroke="#111111" stroke-width="5" stroke-linecap="round" stroke-linejoin="round"/>
<path d="M43.0082 24.5874C44.584 23.0139 44.584 20.4628 43.0082 18.8893C41.4324 17.3159 38.8778 17.3159 37.3021 18.8893C35.7263 20.4628 35.7263 23.0139 37.3021 24.5874C38.8778 26.1609 41.4324 26.1609 43.0082 24.5874Z" fill="#111111" stroke="#111111" stroke-width="5" stroke-linecap="round" stroke-linejoin="round"/>
<path d="M57.2741 33.1346C58.8496 31.5611 58.8496 29.0099 57.2741 27.4364C55.6984 25.8628 53.1435 25.8628 51.5677 27.4364C49.9919 29.0099 49.9919 31.5611 51.5677 33.1346C53.1435 34.7081 55.6984 34.7081 57.2741 33.1346Z" fill="#111111" stroke="#111111" stroke-width="5" stroke-linecap="round" stroke-linejoin="round"/>
<path d="M30.1691 37.408C31.1059 36.4728 32.218 35.7308 33.4417 35.2246C34.6657 34.7182 35.9773 34.4578 37.3021 34.4578C38.6268 34.4578 39.9385 34.7182 41.1624 35.2246C42.3861 35.7308 43.4982 36.4728 44.4347 37.408L49.4277 42.3938C50.6207 43.5858 51.3467 45.1651 51.4742 46.8451C51.6017 48.5254 51.1224 50.1959 50.1231 51.5537C49.1237 52.9114 47.6702 53.8671 46.0264 54.2472C44.3823 54.6276 42.6564 54.4072 41.1609 53.6263C38.5882 52.2728 36.018 52.2707 33.4503 53.6189C31.9557 54.3996 30.2307 54.6202 28.5872 54.2408C26.944 53.8613 25.4908 52.9072 24.4912 51.5506C23.4912 50.1941 23.0107 48.5251 23.1363 46.8457C23.262 45.166 23.9855 43.587 25.1761 42.3938L30.1691 37.408Z" fill="#111111" stroke="#111111" stroke-width="5" stroke-linecap="round" stroke-linejoin="round"/>
</g>
<path d="M116.885 39.9838C116.885 41.5765 116.519 43.039 115.787 44.3707C115.055 45.6765 113.93 46.7341 112.414 47.5434C110.897 48.3528 109.014 48.7577 106.765 48.7577H102.607V58.6284H95.8997V31.1315H106.765C108.962 31.1315 110.819 31.51 112.335 32.2674C113.852 33.0248 114.989 34.0692 115.748 35.4009C116.506 36.7327 116.885 38.2603 116.885 39.9838ZM106.255 43.4307C107.537 43.4307 108.491 43.1305 109.119 42.5298C109.746 41.9291 110.06 41.0805 110.06 39.9838C110.06 38.887 109.746 38.0384 109.119 37.4377C108.491 36.837 107.537 36.5368 106.255 36.5368H102.607V43.4307H106.255ZM141.01 47.3476C141.01 47.9743 140.971 48.627 140.893 49.3061H125.712C125.817 50.6638 126.248 51.7086 127.007 52.4396C127.791 53.1447 128.746 53.4972 129.87 53.4972C131.544 53.4972 132.708 52.7922 133.361 51.3821H140.5C140.134 52.8182 139.467 54.1108 138.5 55.2598C137.558 56.4089 136.368 57.3098 134.93 57.9625C133.492 58.6152 131.884 58.9417 130.105 58.9417C127.961 58.9417 126.052 58.4849 124.379 57.5708C122.705 56.6568 121.397 55.3513 120.456 53.6539C119.515 51.9564 119.044 49.9719 119.044 47.7001C119.044 45.4283 119.501 43.4438 120.417 41.7464C121.358 40.0489 122.666 38.7435 124.339 37.8294C126.013 36.9154 127.935 36.4585 130.105 36.4585C132.224 36.4585 134.107 36.9025 135.754 37.7903C137.401 38.678 138.683 39.9446 139.598 41.5897C140.54 43.2348 141.01 45.1541 141.01 47.3476ZM134.146 45.585C134.146 44.4359 133.753 43.5222 132.969 42.8431C132.184 42.1641 131.204 41.8247 130.027 41.8247C128.903 41.8247 127.948 42.1512 127.164 42.8039C126.405 43.4567 125.934 44.3839 125.751 45.585H134.146ZM156.748 52.9488V58.6284H153.335C150.903 58.6284 149.007 58.0408 147.648 56.8658C146.288 55.6647 145.608 53.7191 145.608 51.0295V42.3339H142.941V36.7719H145.608V31.4448H152.316V36.7719H156.709V42.3339H152.316V51.1079C152.316 51.7606 152.472 52.2306 152.786 52.518C153.1 52.8053 153.623 52.9488 154.355 52.9488H156.748ZM191.669 31.1315V58.6284H184.961V42.1381L178.803 58.6284H173.39L167.192 42.0989V58.6284H160.484V31.1315H168.408L176.135 50.1678L183.784 31.1315H191.669ZM195.159 47.661C195.159 45.4151 195.577 43.4438 196.414 41.7464C197.277 40.0489 198.441 38.7435 199.905 37.8294C201.37 36.9154 203.004 36.4585 204.808 36.4585C206.351 36.4585 207.698 36.7719 208.849 37.3986C210.025 38.0253 210.928 38.8478 211.555 39.8662V36.7719H218.263V58.6284H211.555V55.534C210.901 56.5524 209.986 57.375 208.809 58.0017C207.659 58.6284 206.312 58.9417 204.769 58.9417C202.991 58.9417 201.37 58.4849 199.905 57.5708C198.441 56.6308 197.277 55.3121 196.414 53.6147C195.577 51.8913 195.159 49.9068 195.159 47.661ZM211.555 47.7001C211.555 46.029 211.084 44.7101 210.143 43.744C209.228 42.7779 208.103 42.2947 206.77 42.2947C205.436 42.2947 204.298 42.7779 203.357 43.744C202.442 44.6841 201.984 45.9898 201.984 47.661C201.984 49.3321 202.442 50.6638 203.357 51.6562C204.298 52.6223 205.436 53.1055 206.77 53.1055C208.103 53.1055 209.228 52.6223 210.143 51.6562C211.084 50.6902 211.555 49.3713 211.555 47.7001ZM229.823 39.8662C230.477 38.8478 231.379 38.0253 232.53 37.3986C233.68 36.7719 235.027 36.4585 236.57 36.4585C238.374 36.4585 240.009 36.9154 241.473 37.8294C242.938 38.7435 244.088 40.0489 244.925 41.7464C245.788 43.4438 246.219 45.4151 246.219 47.661C246.219 49.9068 245.788 51.8913 244.925 53.6147C244.088 55.3121 242.938 56.6308 241.473 57.5708C240.009 58.4849 238.374 58.9417 236.57 58.9417C235.053 58.9417 233.706 58.6284 232.53 58.0017C231.379 57.375 230.477 56.5656 229.823 55.5732V69.0475H223.115V36.7719H229.823V39.8662ZM239.394 47.661C239.394 45.9898 238.923 44.6841 237.982 43.744C237.067 42.7779 235.929 42.2947 234.569 42.2947C233.236 42.2947 232.098 42.7779 231.157 43.744C230.241 44.7101 229.784 46.029 229.784 47.7001C229.784 49.3713 230.241 50.6902 231.157 51.6562C232.098 52.6223 233.236 53.1055 234.569 53.1055C235.903 53.1055 237.041 52.6223 237.982 51.6562C238.923 50.6638 239.394 49.3321 239.394 47.661Z" fill="#E9E9E9"/>
</svg>
