<svg width="247" height="94" viewBox="0 0 247 94" fill="none" xmlns="http://www.w3.org/2000/svg">
<g clip-path="url(#clip0_342_256)">
<path d="M74.7742 37.6666C74.7742 60.9672 48.8882 85.2339 40.1957 92.7287C39.3861 93.3367 38.4002 93.6654 37.3871 93.6654C36.374 93.6654 35.3881 93.3367 34.5785 92.7287C25.886 85.2339 0 60.9672 0 37.6666C0 27.7653 3.93898 18.2693 10.9504 11.268C17.9617 4.26657 27.4715 0.333252 37.3871 0.333252C47.3026 0.333252 56.8125 4.26657 63.8238 11.268C70.8351 18.2693 74.7742 27.7653 74.7742 37.6666Z" fill="#159A9C"/>
<mask id="mask0_342_256" style="mask-type:luminance" maskUnits="userSpaceOnUse" x="3" y="1" width="69" height="70">
<path d="M37.3021 1.79517L3.06445 35.9835L37.3021 70.172L71.5398 35.9835L37.3021 1.79517Z" fill="white"/>
</mask>
<g mask="url(#mask0_342_256)">
<path d="M27.3161 28.8607C28.8918 27.2875 28.8918 24.7363 27.3161 23.1628C25.7403 21.5893 23.1854 21.5893 21.6099 23.1628C20.0342 24.7363 20.0342 27.2875 21.6099 28.8607C23.1854 30.4343 25.7403 30.4343 27.3161 28.8607Z" fill="#E9E9E9" stroke="#E9E9E9" stroke-width="5" stroke-linecap="round" stroke-linejoin="round"/>
<path d="M43.0082 24.5874C44.584 23.0139 44.584 20.4628 43.0082 18.8893C41.4324 17.3159 38.8778 17.3159 37.3021 18.8893C35.7263 20.4628 35.7263 23.0139 37.3021 24.5874C38.8778 26.1609 41.4324 26.1609 43.0082 24.5874Z" fill="#E9E9E9" stroke="#E9E9E9" stroke-width="5" stroke-linecap="round" stroke-linejoin="round"/>
<path d="M57.2741 33.1345C58.8496 31.561 58.8496 29.0098 57.2741 27.4363C55.6984 25.8627 53.1435 25.8627 51.5677 27.4363C49.9919 29.0098 49.9919 31.561 51.5677 33.1345C53.1435 34.708 55.6984 34.708 57.2741 33.1345Z" fill="#E9E9E9" stroke="#E9E9E9" stroke-width="5" stroke-linecap="round" stroke-linejoin="round"/>
<path d="M30.1691 37.408C31.1059 36.4728 32.218 35.7308 33.4417 35.2246C34.6657 34.7182 35.9773 34.4578 37.3021 34.4578C38.6268 34.4578 39.9385 34.7182 41.1624 35.2246C42.3861 35.7308 43.4982 36.4728 44.4347 37.408L49.4277 42.3938C50.6207 43.5858 51.3467 45.1651 51.4742 46.8451C51.6017 48.5254 51.1224 50.1959 50.1231 51.5537C49.1237 52.9114 47.6702 53.8671 46.0264 54.2472C44.3823 54.6276 42.6564 54.4072 41.1609 53.6263C38.5882 52.2728 36.018 52.2707 33.4503 53.6189C31.9557 54.3996 30.2307 54.6202 28.5872 54.2408C26.944 53.8613 25.4908 52.9072 24.4912 51.5506C23.4912 50.1941 23.0107 48.5251 23.1363 46.8457C23.262 45.166 23.9855 43.587 25.1761 42.3938L30.1691 37.408Z" fill="#E9E9E9" stroke="#E9E9E9" stroke-width="5" stroke-linecap="round" stroke-linejoin="round"/>
</g>
<path d="M116.885 39.9839C116.885 41.5766 116.519 43.0391 115.787 44.3708C115.055 45.6766 113.93 46.7342 112.414 47.5435C110.897 48.3529 109.014 48.7578 106.765 48.7578H102.607V58.6285H95.8997V31.1316H106.765C108.962 31.1316 110.819 31.5101 112.335 32.2675C113.852 33.0249 114.989 34.0693 115.748 35.401C116.506 36.7328 116.885 38.2604 116.885 39.9839ZM106.255 43.4308C107.537 43.4308 108.491 43.1306 109.119 42.5299C109.746 41.9292 110.06 41.0806 110.06 39.9839C110.06 38.8871 109.746 38.0385 109.119 37.4378C108.491 36.8371 107.537 36.5369 106.255 36.5369H102.607V43.4308H106.255ZM141.01 47.3477C141.01 47.9744 140.971 48.6271 140.893 49.3062H125.712C125.817 50.6639 126.248 51.7087 127.007 52.4397C127.791 53.1448 128.746 53.4973 129.87 53.4973C131.544 53.4973 132.708 52.7923 133.361 51.3822H140.5C140.134 52.8183 139.467 54.1109 138.5 55.2599C137.558 56.409 136.368 57.3099 134.93 57.9626C133.492 58.6153 131.884 58.9418 130.105 58.9418C127.961 58.9418 126.052 58.485 124.379 57.5709C122.705 56.6569 121.397 55.3514 120.456 53.654C119.515 51.9565 119.044 49.972 119.044 47.7002C119.044 45.4284 119.501 43.4439 120.417 41.7465C121.358 40.049 122.666 38.7436 124.339 37.8295C126.013 36.9155 127.935 36.4586 130.105 36.4586C132.224 36.4586 134.107 36.9026 135.754 37.7904C137.401 38.6781 138.683 39.9447 139.598 41.5898C140.54 43.2349 141.01 45.1542 141.01 47.3477ZM134.146 45.5851C134.146 44.436 133.753 43.5223 132.969 42.8432C132.184 42.1642 131.204 41.8248 130.027 41.8248C128.903 41.8248 127.948 42.1513 127.164 42.804C126.405 43.4568 125.934 44.384 125.751 45.5851H134.146ZM156.748 52.9489V58.6285H153.335C150.903 58.6285 149.007 58.0409 147.648 56.8659C146.288 55.6648 145.608 53.7192 145.608 51.0296V42.334H142.941V36.772H145.608V31.4449H152.316V36.772H156.709V42.334H152.316V51.108C152.316 51.7607 152.472 52.2307 152.786 52.5181C153.1 52.8054 153.623 52.9489 154.355 52.9489H156.748ZM191.669 31.1316V58.6285H184.961V42.1382L178.803 58.6285H173.39L167.192 42.099V58.6285H160.484V31.1316H168.408L176.135 50.1679L183.784 31.1316H191.669ZM195.159 47.6611C195.159 45.4152 195.577 43.4439 196.414 41.7465C197.277 40.049 198.441 38.7436 199.905 37.8295C201.37 36.9155 203.004 36.4586 204.808 36.4586C206.351 36.4586 207.698 36.772 208.849 37.3987C210.025 38.0254 210.928 38.8479 211.555 39.8663V36.772H218.263V58.6285H211.555V55.5341C210.901 56.5525 209.986 57.3751 208.809 58.0018C207.659 58.6285 206.312 58.9418 204.769 58.9418C202.991 58.9418 201.37 58.485 199.905 57.5709C198.441 56.6309 197.277 55.3122 196.414 53.6148C195.577 51.8914 195.159 49.9069 195.159 47.6611ZM211.555 47.7002C211.555 46.0291 211.084 44.7102 210.143 43.7441C209.228 42.778 208.103 42.2948 206.77 42.2948C205.436 42.2948 204.298 42.778 203.357 43.7441C202.442 44.6842 201.984 45.9899 201.984 47.6611C201.984 49.3322 202.442 50.6639 203.357 51.6563C204.298 52.6224 205.436 53.1056 206.77 53.1056C208.103 53.1056 209.228 52.6224 210.143 51.6563C211.084 50.6903 211.555 49.3714 211.555 47.7002ZM229.823 39.8663C230.477 38.8479 231.379 38.0254 232.53 37.3987C233.68 36.772 235.027 36.4586 236.57 36.4586C238.374 36.4586 240.009 36.9155 241.473 37.8295C242.938 38.7436 244.088 40.049 244.925 41.7465C245.788 43.4439 246.219 45.4152 246.219 47.6611C246.219 49.9069 245.788 51.8914 244.925 53.6148C244.088 55.3122 242.938 56.6309 241.473 57.5709C240.009 58.485 238.374 58.9418 236.57 58.9418C235.053 58.9418 233.706 58.6285 232.53 58.0018C231.379 57.3751 230.477 56.5657 229.823 55.5733V69.0476H223.115V36.772H229.823V39.8663ZM239.394 47.6611C239.394 45.9899 238.923 44.6842 237.982 43.7441C237.067 42.778 235.929 42.2948 234.569 42.2948C233.236 42.2948 232.098 42.778 231.157 43.7441C230.241 44.7102 229.784 46.0291 229.784 47.7002C229.784 49.3714 230.241 50.6903 231.157 51.6563C232.098 52.6224 233.236 53.1056 234.569 53.1056C235.903 53.1056 237.041 52.6224 237.982 51.6563C238.923 50.6639 239.394 49.3322 239.394 47.6611Z" fill="#111111"/>
</g>
<defs>
<clipPath id="clip0_342_256">
<rect width="247" height="94" fill="white"/>
</clipPath>
</defs>
</svg>
