<svg width="898" height="366" viewBox="0 0 898 366" fill="none" xmlns="http://www.w3.org/2000/svg">
<path fill-rule="evenodd" clip-rule="evenodd" d="M173.165 332.935C201.53 308.443 286 229.143 286 153C286 120.644 273.146 89.6124 250.267 66.733C227.388 43.8535 196.356 31 164 31C131.644 31 100.612 43.8535 77.733 66.733C54.8535 89.6124 42 120.644 42 153C42 229.143 126.47 308.443 154.835 332.935C157.477 334.922 160.694 335.996 164 335.996C167.306 335.996 170.523 334.922 173.165 332.935ZM188.292 85.6898C196.719 94.1171 196.719 107.781 188.292 116.208C179.865 124.635 166.201 124.635 157.774 116.208C149.347 107.781 149.347 94.1171 157.774 85.6898C166.201 77.2625 179.865 77.2625 188.292 85.6898ZM135.778 101.759C144.205 110.187 144.205 123.851 135.778 132.278C127.35 140.706 113.687 140.706 105.259 132.278C96.8316 123.851 96.8316 110.187 105.259 101.759C113.687 93.3318 127.35 93.3318 135.778 101.759ZM237.778 146.278C246.205 137.851 246.205 124.187 237.778 115.759C229.35 107.332 215.687 107.332 207.259 115.759C198.832 124.187 198.832 137.851 207.259 146.278C215.687 154.706 229.35 154.706 237.778 146.278ZM148.827 137.78C144.105 139.736 139.815 142.602 136.201 146.216L116.937 165.48C112.343 170.09 109.552 176.191 109.067 182.681C108.582 189.17 110.436 195.619 114.294 200.86C118.151 206.1 123.757 209.787 130.098 211.253C136.438 212.719 143.093 211.867 148.86 208.851C158.767 203.641 168.683 203.65 178.609 208.879C184.378 211.896 191.038 212.748 197.381 211.279C203.723 209.81 209.331 206.118 213.186 200.871C217.042 195.625 218.892 189.171 218.4 182.679C217.908 176.187 215.107 170.085 210.504 165.48L191.24 146.216C187.626 142.602 183.336 139.736 178.614 137.78C173.892 135.824 168.831 134.817 163.721 134.817C158.61 134.817 153.549 135.824 148.827 137.78Z" fill="black" fill-opacity="0.5"/>
<path d="M428.51 160.072C428.51 165.277 427.315 170.056 424.926 174.408C422.536 178.675 418.867 182.131 413.918 184.776C408.968 187.421 402.824 188.744 395.486 188.744H381.918V221H360.03V131.144H395.486C402.654 131.144 408.712 132.381 413.662 134.856C418.611 137.331 422.323 140.744 424.798 145.096C427.272 149.448 428.51 154.44 428.51 160.072ZM393.822 171.336C398.003 171.336 401.118 170.355 403.166 168.392C405.214 166.429 406.238 163.656 406.238 160.072C406.238 156.488 405.214 153.715 403.166 151.752C401.118 149.789 398.003 148.808 393.822 148.808H381.918V171.336H393.822ZM507.233 184.136C507.233 186.184 507.105 188.317 506.849 190.536H457.313C457.654 194.973 459.062 198.387 461.537 200.776C464.097 203.08 467.211 204.232 470.881 204.232C476.342 204.232 480.139 201.928 482.273 197.32H505.569C504.374 202.013 502.198 206.237 499.041 209.992C495.969 213.747 492.086 216.691 487.393 218.824C482.699 220.957 477.451 222.024 471.649 222.024C464.651 222.024 458.422 220.531 452.961 217.544C447.499 214.557 443.233 210.291 440.161 204.744C437.089 199.197 435.553 192.712 435.553 185.288C435.553 177.864 437.046 171.379 440.033 165.832C443.105 160.285 447.371 156.019 452.833 153.032C458.294 150.045 464.566 148.552 471.649 148.552C478.561 148.552 484.705 150.003 490.081 152.904C495.457 155.805 499.638 159.944 502.625 165.32C505.697 170.696 507.233 176.968 507.233 184.136ZM484.833 178.376C484.833 174.621 483.553 171.635 480.993 169.416C478.433 167.197 475.233 166.088 471.393 166.088C467.723 166.088 464.609 167.155 462.049 169.288C459.574 171.421 458.038 174.451 457.441 178.376H484.833ZM558.588 202.44V221H547.452C539.516 221 533.329 219.08 528.892 215.24C524.454 211.315 522.236 204.957 522.236 196.168V167.752H513.532V149.576H522.236V132.168H544.124V149.576H558.46V167.752H544.124V196.424C544.124 198.557 544.636 200.093 545.66 201.032C546.684 201.971 548.39 202.44 550.78 202.44H558.588ZM672.54 131.144V221H650.652V167.112L630.556 221H612.892L592.668 166.984V221H570.78V131.144H596.636L621.852 193.352L646.812 131.144H672.54ZM683.928 185.16C683.928 177.821 685.293 171.379 688.024 165.832C690.84 160.285 694.637 156.019 699.416 153.032C704.194 150.045 709.528 148.552 715.416 148.552C720.45 148.552 724.845 149.576 728.6 151.624C732.44 153.672 735.384 156.36 737.432 159.688V149.576H759.32V221H737.432V210.888C735.298 214.216 732.312 216.904 728.472 218.952C724.717 221 720.322 222.024 715.288 222.024C709.485 222.024 704.194 220.531 699.416 217.544C694.637 214.472 690.84 210.163 688.024 204.616C685.293 198.984 683.928 192.499 683.928 185.16ZM737.432 185.288C737.432 179.827 735.896 175.517 732.824 172.36C729.837 169.203 726.168 167.624 721.816 167.624C717.464 167.624 713.752 169.203 710.68 172.36C707.693 175.432 706.2 179.699 706.2 185.16C706.2 190.621 707.693 194.973 710.68 198.216C713.752 201.373 717.464 202.952 721.816 202.952C726.168 202.952 729.837 201.373 732.824 198.216C735.896 195.059 737.432 190.749 737.432 185.288ZM797.043 159.688C799.176 156.36 802.12 153.672 805.875 151.624C809.629 149.576 814.024 148.552 819.059 148.552C824.947 148.552 830.28 150.045 835.059 153.032C839.837 156.019 843.592 160.285 846.323 165.832C849.139 171.379 850.547 177.821 850.547 185.16C850.547 192.499 849.139 198.984 846.323 204.616C843.592 210.163 839.837 214.472 835.059 217.544C830.28 220.531 824.947 222.024 819.059 222.024C814.109 222.024 809.715 221 805.875 218.952C802.12 216.904 799.176 214.259 797.043 211.016V255.048H775.155V149.576H797.043V159.688ZM828.275 185.16C828.275 179.699 826.739 175.432 823.667 172.36C820.68 169.203 816.968 167.624 812.531 167.624C808.179 167.624 804.467 169.203 801.395 172.36C798.408 175.517 796.915 179.827 796.915 185.288C796.915 190.749 798.408 195.059 801.395 198.216C804.467 201.373 808.179 202.952 812.531 202.952C816.883 202.952 820.595 201.373 823.667 198.216C826.739 194.973 828.275 190.621 828.275 185.16Z" fill="black" fill-opacity="0.5"/>
</svg>
